<svg version="1.1" id="svg2" width="85px" height="85px" viewBox="0 0 85 85" xmlns="http://www.w3.org/2000/svg">
  <defs id="defs6"></defs>
  <g transform="matrix(1, 0, 0, 1, 26.379311, 1.318966)">
    <title>Sun</title>
    <path d="M 45.847 30.965 C 45.847 37.628 40.445 43.03 33.782 43.03 C 27.118 43.03 21.716 37.628 21.716 30.965 C 21.716 24.301 27.118 18.899 33.782 18.899 C 40.445 18.899 45.847 24.301 45.847 30.965" style="fill: rgb(251, 197, 8); fill-opacity: 1; fill-rule: nonzero; stroke: none;" id="path12"></path>
    <path d="M 43.983 39.54 C 44.581 38.967 45.836 36.945 46.297 35.539 C 47.548 36.671 49.038 38.494 50.071 40.394 C 47.92 40.444 45.58 40.061 43.983 39.54" style="fill: rgb(251, 197, 8); fill-opacity: 1; fill-rule: nonzero; stroke: none;" id="path14"></path>
    <path d="M 38.323 43.494 C 39.275 43.125 39.133 43.202 40.434 42.52 C 41.539 41.785 40.743 42.415 42.342 41.187 C 43.297 44.3 43.18 47.282 43.18 47.282 C 43.18 47.282 40.512 45.876 38.323 43.494" style="fill: rgb(251, 197, 8); fill-opacity: 1; fill-rule: nonzero; stroke: none;" id="path16"></path>
    <path d="M 31.452 44.1 C 34.384 44.454 34.538 44.226 35.365 44.209 C 35.796 44.15 36.081 44.09 36.081 44.09 C 35.642 46.101 34.669 48.32 33.759 49.787 C 32.683 47.998 31.884 45.987 31.452 44.1" style="fill: rgb(251, 197, 8); fill-opacity: 1; fill-rule: nonzero; stroke: none;" id="path18"></path>
    <path d="M 25.207 41.167 C 25.779 41.764 27.8 43.019 29.208 43.48 C 28.022 44.793 26.202 46.249 24.353 47.254 C 24.302 45.073 24.697 42.731 25.207 41.167" style="fill: rgb(251, 197, 8); fill-opacity: 1; fill-rule: nonzero; stroke: none;" id="path20"></path>
    <path d="M 21.252 35.506 C 21.621 36.459 21.544 36.316 22.226 37.617 C 22.961 38.722 22.331 37.926 23.56 39.526 C 20.447 40.48 17.464 40.363 17.464 40.363 C 17.464 40.363 18.871 37.695 21.252 35.506" style="fill: rgb(251, 197, 8); fill-opacity: 1; fill-rule: nonzero; stroke: none;" id="path22"></path>
    <path d="M 20.647 28.634 C 20.443 30.325 20.483 29.685 20.457 30.954 C 20.419 31.536 20.529 32.113 20.538 32.548 C 20.596 32.979 20.657 33.264 20.658 33.264 C 18.658 32.828 16.445 31.865 14.96 30.942 C 16.742 29.87 18.767 29.065 20.647 28.634" style="fill: rgb(251, 197, 8); fill-opacity: 1; fill-rule: nonzero; stroke: none;" id="path24"></path>
    <path d="M 23.58 22.39 C 23.58 22.39 23.368 22.593 23.128 22.957 C 22.425 23.932 21.701 25.064 21.266 26.391 C 19.954 25.205 18.498 23.386 17.493 21.536 C 19.643 21.485 21.959 21.861 23.58 22.39" style="fill: rgb(251, 197, 8); fill-opacity: 1; fill-rule: nonzero; stroke: none;" id="path26"></path>
    <path d="M 29.24 18.436 C 27.087 19.27 26.219 19.976 25.221 20.743 C 24.266 17.63 24.384 14.647 24.384 14.647 C 24.384 14.647 27.061 16.064 29.24 18.436" style="fill: rgb(251, 197, 8); fill-opacity: 1; fill-rule: nonzero; stroke: none;" id="path28"></path>
    <path d="M 36.112 17.83 C 33.179 17.476 33.025 17.704 32.198 17.721 C 31.767 17.78 31.482 17.841 31.482 17.841 C 31.906 15.896 32.837 13.701 33.805 12.143 C 34.775 13.756 35.643 15.783 36.112 17.83" style="fill: rgb(251, 197, 8); fill-opacity: 1; fill-rule: nonzero; stroke: none;" id="path30"></path>
    <path d="M 42.357 20.763 C 41.79 20.172 39.773 18.914 38.356 18.45 C 39.487 17.198 41.311 15.708 43.21 14.676 C 43.261 16.857 42.867 19.199 42.357 20.763" style="fill: rgb(251, 197, 8); fill-opacity: 1; fill-rule: nonzero; stroke: none;" id="path32"></path>
    <path d="M 46.31 26.423 C 45.942 25.472 46.019 25.614 45.337 24.312 C 44.602 23.208 45.231 24.003 44.004 22.404 C 47.116 21.449 50.099 21.567 50.099 21.567 C 50.099 21.567 48.686 24.241 46.31 26.423" style="fill: rgb(251, 197, 8); fill-opacity: 1; fill-rule: nonzero; stroke: none;" id="path34"></path>
    <path d="M 46.916 33.296 C 47.12 31.605 47.08 32.245 47.107 30.976 C 47.144 30.394 47.034 29.817 47.025 29.381 C 46.967 28.951 46.906 28.666 46.906 28.666 C 48.918 29.105 51.137 30.078 52.603 30.988 C 50.99 31.959 48.963 32.826 46.916 33.296" style="fill: rgb(251, 197, 8); fill-opacity: 1; fill-rule: nonzero; stroke: none;" id="path36"></path>
    <path d="M 45.845 30.963 C 45.845 37.631 40.448 43.029 33.78 43.029 C 33.771 43.029 33.771 43.029 33.764 43.029 C 27.112 43.02 21.714 37.623 21.714 30.963 C 21.714 24.311 27.112 18.905 33.764 18.897 C 33.771 18.897 33.771 18.897 33.78 18.897 C 40.448 18.897 45.845 24.302 45.845 30.963" style="fill: rgb(251, 197, 8); fill-opacity: 1; fill-rule: nonzero; stroke: none;" id="path38"></path>
    <path d="M 50.068 40.39 C 47.92 40.446 45.58 40.06 43.987 39.537 C 44.583 38.966 45.837 36.947 46.296 35.539 C 47.55 36.674 49.038 38.491 50.068 40.39" style="fill: rgb(251, 197, 8); fill-opacity: 1; fill-rule: nonzero; stroke: none;" id="path40"></path>
    <path d="M 43.182 47.283 C 43.182 47.283 40.512 45.876 38.325 43.495 C 39.274 43.125 39.137 43.205 40.432 42.522 C 41.542 41.79 40.746 42.417 42.346 41.186 C 43.295 44.299 43.182 47.283 43.182 47.283" style="fill: rgb(251, 197, 8); fill-opacity: 1; fill-rule: nonzero; stroke: none;" id="path42"></path>
    <path d="M 36.08 44.09 C 35.646 46.093 34.68 48.305 33.764 49.769 C 33.764 49.777 33.755 49.777 33.755 49.785 C 32.686 47.999 31.881 45.988 31.455 44.098 C 32.557 44.226 33.265 44.284 33.764 44.291 C 34.592 44.316 34.849 44.219 35.364 44.21 C 35.798 44.154 36.08 44.09 36.08 44.09" style="fill: rgb(251, 197, 8); fill-opacity: 1; fill-rule: nonzero; stroke: none;" id="path44"></path>
    <path d="M 25.207 41.167 C 25.779 41.764 27.8 43.019 29.208 43.48 C 28.022 44.793 26.202 46.249 24.353 47.254 C 24.302 45.073 24.697 42.731 25.207 41.167" style="fill: rgb(251, 197, 8); fill-opacity: 1; fill-rule: nonzero; stroke: none;" id="path46"></path>
    <path d="M 21.252 35.506 C 21.621 36.459 21.544 36.316 22.226 37.617 C 22.961 38.722 22.331 37.926 23.56 39.526 C 20.447 40.48 17.464 40.363 17.464 40.363 C 17.464 40.363 18.871 37.695 21.252 35.506" style="fill: rgb(251, 197, 8); fill-opacity: 1; fill-rule: nonzero; stroke: none;" id="path48"></path>
    <path d="M 20.647 28.634 C 20.443 30.325 20.483 29.685 20.457 30.954 C 20.419 31.536 20.529 32.113 20.538 32.548 C 20.596 32.979 20.657 33.264 20.658 33.264 C 18.658 32.828 16.445 31.865 14.96 30.942 C 16.742 29.87 18.767 29.065 20.647 28.634" style="fill: rgb(251, 197, 8); fill-opacity: 1; fill-rule: nonzero; stroke: none;" id="path50"></path>
    <path d="M 23.58 22.39 C 23.58 22.39 23.368 22.593 23.128 22.957 C 22.425 23.932 21.701 25.064 21.266 26.391 C 19.954 25.205 18.498 23.386 17.493 21.536 C 19.643 21.485 21.959 21.861 23.58 22.39" style="fill: rgb(251, 197, 8); fill-opacity: 1; fill-rule: nonzero; stroke: none;" id="path52"></path>
    <path d="M 29.24 18.436 C 27.087 19.27 26.219 19.976 25.221 20.743 C 24.266 17.63 24.384 14.647 24.384 14.647 C 24.384 14.647 27.061 16.064 29.24 18.436" style="fill: rgb(251, 197, 8); fill-opacity: 1; fill-rule: nonzero; stroke: none;" id="path54"></path>
    <path d="M 36.112 17.827 C 34.986 17.691 34.262 17.642 33.764 17.634 C 32.959 17.618 32.702 17.715 32.195 17.723 C 31.768 17.779 31.479 17.843 31.479 17.843 C 31.897 15.921 32.815 13.757 33.764 12.204 C 33.78 12.181 33.787 12.164 33.804 12.14 C 34.777 13.757 35.646 15.784 36.112 17.827" style="fill: rgb(251, 197, 8); fill-opacity: 1; fill-rule: nonzero; stroke: none;" id="path56"></path>
    <path d="M 42.354 20.763 C 41.791 20.176 39.772 18.914 38.356 18.447 C 39.491 17.199 41.309 15.712 43.207 14.674 C 43.263 16.853 42.869 19.202 42.354 20.763" style="fill: rgb(251, 197, 8); fill-opacity: 1; fill-rule: nonzero; stroke: none;" id="path58"></path>
    <path d="M 50.1 21.567 C 50.1 21.567 48.684 24.238 46.312 26.426 C 45.942 25.468 46.022 25.614 45.338 24.311 C 44.598 23.208 45.234 24.004 44.003 22.404 C 47.116 21.446 50.1 21.567 50.1 21.567" style="fill: rgb(251, 197, 8); fill-opacity: 1; fill-rule: nonzero; stroke: none;" id="path60"></path>
    <path d="M 47.108 30.978 C 47.14 30.391 47.036 29.82 47.028 29.378 C 46.963 28.952 46.907 28.662 46.907 28.662 C 48.918 29.105 51.138 30.078 52.602 30.987 C 50.993 31.96 48.966 32.829 46.915 33.296 C 47.124 31.606 47.076 32.241 47.108 30.978" style="fill: rgb(251, 197, 8); fill-opacity: 1; fill-rule: nonzero; stroke: none;" id="path62"></path>
    <path d="M 36.112 17.827 C 34.986 17.691 34.262 17.642 33.764 17.634 L 33.764 12.204 C 33.78 12.181 33.787 12.164 33.804 12.14 C 34.777 13.757 35.646 15.784 36.112 17.827" style="fill: rgb(249, 220, 6); fill-opacity: 1; fill-rule: nonzero; stroke: none;" id="path64"></path>
    <path d="M 35.364 44.21 C 35.798 44.154 36.08 44.09 36.08 44.09 C 35.646 46.093 34.68 48.305 33.764 49.769 L 33.764 44.291 C 34.592 44.316 34.849 44.219 35.364 44.21" style="fill: rgb(249, 220, 6); fill-opacity: 1; fill-rule: nonzero; stroke: none;" id="path66"></path>
    <path d="M 33.78 43.029 C 33.771 43.029 33.771 43.029 33.764 43.029 L 33.764 18.897 C 33.771 18.897 33.771 18.897 33.78 18.897 C 40.448 18.897 45.845 24.302 45.845 30.963 C 45.845 37.631 40.448 43.029 33.78 43.029" style="fill: rgb(249, 220, 6); fill-opacity: 1; fill-rule: nonzero; stroke: none;" id="path68"></path>
    <path d="M 42.346 41.186 C 43.295 44.299 43.182 47.283 43.182 47.283 C 43.182 47.283 40.512 45.876 38.325 43.495 C 39.274 43.125 39.137 43.205 40.432 42.522 C 41.542 41.79 40.746 42.417 42.346 41.186" style="fill: rgb(249, 220, 6); fill-opacity: 1; fill-rule: nonzero; stroke: none;" id="path70"></path>
    <path d="M 42.354 20.763 C 41.791 20.176 39.772 18.914 38.356 18.447 C 39.491 17.199 41.309 15.712 43.207 14.674 C 43.263 16.853 42.869 19.202 42.354 20.763" style="fill: rgb(249, 220, 6); fill-opacity: 1; fill-rule: nonzero; stroke: none;" id="path72"></path>
    <path d="M 50.068 40.39 C 47.92 40.446 45.58 40.06 43.987 39.537 C 44.583 38.966 45.837 36.947 46.296 35.539 C 47.55 36.674 49.038 38.491 50.068 40.39" style="fill: rgb(249, 220, 6); fill-opacity: 1; fill-rule: nonzero; stroke: none;" id="path74"></path>
    <path d="M 45.338 24.311 C 44.598 23.208 45.234 24.004 44.003 22.404 C 47.116 21.446 50.1 21.567 50.1 21.567 C 50.1 21.567 48.684 24.238 46.312 26.426 C 45.942 25.468 46.022 25.614 45.338 24.311" style="fill: rgb(249, 220, 6); fill-opacity: 1; fill-rule: nonzero; stroke: none;" id="path76"></path>
    <path d="M 47.108 30.978 C 47.14 30.391 47.036 29.82 47.028 29.378 C 46.963 28.952 46.907 28.662 46.907 28.662 C 48.918 29.105 51.138 30.078 52.602 30.987 C 50.993 31.96 48.966 32.829 46.915 33.296 C 47.124 31.606 47.076 32.241 47.108 30.978" style="fill: rgb(249, 220, 6); fill-opacity: 1; fill-rule: nonzero; stroke: none;" id="path78"></path>
    <path d="M 44.461 30.963 L 43.207 30.963 C 43.207 25.764 38.978 21.536 33.78 21.536 L 33.766 20.281 L 33.78 20.281 C 39.67 20.281 44.461 25.073 44.461 30.963" style="fill: rgb(255, 255, 255); fill-opacity: 1; fill-rule: nonzero; stroke: none;" id="path80"></path>
    <path d="M 40.754 30.963 C 40.754 34.816 37.633 37.936 33.78 37.936 C 33.771 37.936 33.771 37.936 33.771 37.936 L 33.764 37.936 C 29.919 37.92 26.806 34.807 26.806 30.963 C 26.806 27.117 29.919 24.004 33.764 23.989 L 33.771 23.989 C 33.771 23.989 33.771 23.989 33.78 23.989 C 37.633 23.989 40.754 27.117 40.754 30.963" style="fill: rgb(251, 197, 8); fill-opacity: 1; fill-rule: nonzero; stroke: none;" id="path82"></path>
    <path d="M 33.764 23.989 L 33.764 37.936 C 29.919 37.92 26.806 34.807 26.806 30.963 C 26.806 27.117 29.919 24.004 33.764 23.989" style="fill: rgb(249, 220, 6); fill-opacity: 1; fill-rule: nonzero; stroke: none;" id="path84"></path>
  </g>
  <g id="g8" transform="matrix(0.871067, 0, 0, -0.871067, -109.509834, 239.391815)" style="">
    <g id="g10" transform="scale(0.1)">
      <path d="M 1977.619 2146.658 C 1977.619 2114.838 1964.756 2085.968 1943.85 2065.148 C 1922.936 2044.348 1894.178 2031.398 1862.346 2031.398 L 1380.182 2031.398 C 1324.9 2031.398 1280.017 2076.278 1280.017 2131.558 C 1280.017 2186.848 1324.9 2231.628 1380.182 2231.628 C 1397.932 2231.628 1414.557 2227.038 1429.045 2218.878 C 1426.701 2225.408 1425.264 2232.438 1425.264 2239.778 C 1425.264 2273.548 1452.608 2300.778 1486.361 2300.778 C 1506.256 2300.778 1524.006 2291.188 1535.127 2276.308 C 1540.428 2352.708 1601.322 2413.798 1677.725 2418.898 C 1681.194 2419.208 1684.658 2419.308 1688.229 2419.308 C 1773.096 2419.308 1841.947 2350.458 1841.947 2265.588 C 1841.947 2263.648 1841.74 2261.818 1841.643 2259.878 C 1848.365 2261.108 1855.303 2261.818 1862.346 2261.818 C 1925.998 2261.818 1977.619 2210.208 1977.619 2146.658" style="fill:#42aecb;fill-opacity:1;fill-rule:nonzero;stroke:none" id="path342"></path>
      <path d="M 1977.619 2146.658 C 1977.619 2114.838 1964.756 2085.968 1943.85 2065.148 C 1922.936 2044.348 1894.178 2031.398 1862.346 2031.398 L 1677.725 2031.398 L 1677.725 2418.898 C 1681.194 2419.208 1684.658 2419.308 1688.229 2419.308 C 1773.096 2419.308 1841.947 2350.458 1841.947 2265.588 C 1841.947 2263.648 1841.74 2261.818 1841.643 2259.878 C 1848.365 2261.108 1855.303 2261.818 1862.346 2261.818 C 1925.998 2261.818 1977.619 2210.208 1977.619 2146.658" style="fill:#47b9d4;fill-opacity:1;fill-rule:nonzero;stroke:none" id="path344"></path>
      <path d="M 1804.678 2265.208 L 1789.678 2265.208 C 1789.678 2321.348 1744.006 2367.018 1687.861 2367.018 C 1684.674 2367.018 1681.514 2366.858 1678.404 2366.578 L 1677.049 2381.518 C 1680.608 2381.838 1684.217 2382.018 1687.861 2382.018 C 1752.276 2382.018 1804.678 2329.618 1804.678 2265.208" style="fill:#ffffff;fill-opacity:1;fill-rule:nonzero;stroke:none" id="path346"></path>
    </g>
  </g>
  <g id="g-1" transform="matrix(0.61131, 0, 0, -0.611193, -49.539188, 258.594543)" style="">
    <g id="g-2" transform="scale(0.1)">
      <path d="m 1700.98,3040.85 c 0,-40 -32.5,-72.4 -72.5,-72.4 -40.11,0 -72.5,32.4 -72.5,72.4 0,40.1 72.5,142.6 72.5,142.6 0,0 72.5,-102.5 72.5,-142.6" style="fill:#a1e0f0;fill-opacity:1;fill-rule:nonzero;stroke:none" id="path238"></path>
      <path d="m 1700.98,3040.85 c 0,-40 -32.5,-72.4 -72.5,-72.4 v 215 c 0,0 72.5,-102.5 72.5,-142.6" style="fill:#ace4f5;fill-opacity:1;fill-rule:nonzero;stroke:none" id="path240"></path>
      <path d="m 1628.48,2988.45 v 10 c 23.43,0 42.5,19.02 42.5,42.4 h 10 c 0,-28.9 -23.55,-52.4 -52.5,-52.4" style="fill:#ffffff;fill-opacity:1;fill-rule:nonzero;stroke:none" id="path242"></path>
      <path d="m 1511.7,3112.71 c 0,-19.78 -16.07,-35.79 -35.84,-35.79 -19.82,0 -35.83,16.01 -35.83,35.79 0,19.81 35.83,70.48 35.83,70.48 0,0 35.84,-50.67 35.84,-70.48" style="fill:#a1e0f0;fill-opacity:1;fill-rule:nonzero;stroke:none" id="path244"></path>
      <path d="m 1511.7,3112.71 c 0,-19.78 -16.07,-35.79 -35.84,-35.79 v 106.27 c 0,0 35.84,-50.67 35.84,-70.48" style="fill:#ace4f5;fill-opacity:1;fill-rule:nonzero;stroke:none" id="path246"></path>
    </g>
  </g>
</svg>