<svg version="1.1" id="svg2" width="85px" height="85px" viewBox="0 0 85 85" xmlns="http://www.w3.org/2000/svg">
  <defs id="defs6"></defs>
  <g transform="matrix(1, 0, 0, 1, -3.517242, -2.491379)">
    <path d="M 77.984 31.594 C 75.544 26.411 70.283 22.829 64.177 22.829 C 59.504 22.829 55.322 24.931 52.531 28.243 C 50.28 30.896 48.93 34.332 48.93 38.081 C 48.93 46.504 55.754 53.335 64.177 53.335 C 65.023 53.335 65.848 53.262 66.653 53.133 C 61.351 51.694 57.442 46.86 57.442 41.103 C 57.442 38.822 58.058 36.684 59.13 34.841 C 61.286 31.128 65.308 28.627 69.917 28.627 C 72.997 28.627 75.81 29.747 77.984 31.594" style="fill: rgb(251, 220, 70); fill-opacity: 1; fill-rule: nonzero; stroke: none;" id="path248" transform="matrix(-1, 0, 0, -1, 126.914002, 76.163999)"></path>
    <path d="M 68.774 35.688 C 68.774 33.408 69.39 31.269 70.461 29.426 L 63.863 22.829 C 61.612 25.482 60.262 28.918 60.262 32.667 C 60.262 41.09 67.085 47.921 75.509 47.921 C 76.355 47.921 77.179 47.848 77.984 47.718 C 72.683 46.279 68.774 41.446 68.774 35.688" style="fill: rgb(250, 232, 69); fill-opacity: 1; fill-rule: nonzero; stroke: none;" id="path250" transform="matrix(-1, 0, 0, -1, 138.246009, 70.750002)"></path>
    <path d="M 76.207 38.083 C 68.779 38.083 62.737 44.128 62.737 51.558 L 63.922 51.558 C 63.922 44.782 69.432 39.268 76.207 39.268 L 76.207 38.083" style="fill: rgb(255, 255, 255); fill-opacity: 1; fill-rule: nonzero; stroke: none;" id="path252" transform="matrix(-1, 0, 0, -1, 138.944008, 89.640998)"></path>
    <path d="M 59.358 36.062 L 63.446 35.389 L 59.358 34.715 L 58.684 30.626 L 58.011 34.715 L 53.922 35.388 L 58.011 36.062 L 58.684 40.151 L 59.358 36.062" style="fill: rgb(250, 232, 69); fill-opacity: 1; fill-rule: nonzero; stroke: none;" id="path254" transform="matrix(-1, 0, 0, -1, 117.367996, 70.777002)"></path>
    <path d="M 53.913 30.132 L 55.959 29.795 L 53.913 29.458 L 53.577 27.413 L 53.24 29.458 L 51.195 29.795 L 53.24 30.132 L 53.577 32.177 L 53.913 30.132" style="fill: rgb(250, 232, 69); fill-opacity: 1; fill-rule: nonzero; stroke: none;" id="path256" transform="matrix(-1, 0, 0, -1, 107.154001, 59.59)"></path>
  </g>
  <g id="g8" transform="matrix(0.871067, 0, 0, -0.871067, -109.509834, 239.391815)" style="">
    <g id="g10" transform="scale(0.1)">
      <path d="M 1977.619 2146.658 C 1977.619 2114.838 1964.756 2085.968 1943.85 2065.148 C 1922.936 2044.348 1894.178 2031.398 1862.346 2031.398 L 1380.182 2031.398 C 1324.9 2031.398 1280.017 2076.278 1280.017 2131.558 C 1280.017 2186.848 1324.9 2231.628 1380.182 2231.628 C 1397.932 2231.628 1414.557 2227.038 1429.045 2218.878 C 1426.701 2225.408 1425.264 2232.438 1425.264 2239.778 C 1425.264 2273.548 1452.608 2300.778 1486.361 2300.778 C 1506.256 2300.778 1524.006 2291.188 1535.127 2276.308 C 1540.428 2352.708 1601.322 2413.798 1677.725 2418.898 C 1681.194 2419.208 1684.658 2419.308 1688.229 2419.308 C 1773.096 2419.308 1841.947 2350.458 1841.947 2265.588 C 1841.947 2263.648 1841.74 2261.818 1841.643 2259.878 C 1848.365 2261.108 1855.303 2261.818 1862.346 2261.818 C 1925.998 2261.818 1977.619 2210.208 1977.619 2146.658" style="fill:#42aecb;fill-opacity:1;fill-rule:nonzero;stroke:none" id="path342"></path>
      <path d="M 1977.619 2146.658 C 1977.619 2114.838 1964.756 2085.968 1943.85 2065.148 C 1922.936 2044.348 1894.178 2031.398 1862.346 2031.398 L 1677.725 2031.398 L 1677.725 2418.898 C 1681.194 2419.208 1684.658 2419.308 1688.229 2419.308 C 1773.096 2419.308 1841.947 2350.458 1841.947 2265.588 C 1841.947 2263.648 1841.74 2261.818 1841.643 2259.878 C 1848.365 2261.108 1855.303 2261.818 1862.346 2261.818 C 1925.998 2261.818 1977.619 2210.208 1977.619 2146.658" style="fill:#47b9d4;fill-opacity:1;fill-rule:nonzero;stroke:none" id="path344"></path>
      <path d="M 1804.678 2265.208 L 1789.678 2265.208 C 1789.678 2321.348 1744.006 2367.018 1687.861 2367.018 C 1684.674 2367.018 1681.514 2366.858 1678.404 2366.578 L 1677.049 2381.518 C 1680.608 2381.838 1684.217 2382.018 1687.861 2382.018 C 1752.276 2382.018 1804.678 2329.618 1804.678 2265.208" style="fill:#ffffff;fill-opacity:1;fill-rule:nonzero;stroke:none" id="path346"></path>
    </g>
  </g>
  <g id="g-1" transform="matrix(0.61131, 0, 0, -0.611193, -49.539188, 258.594543)" style="">
    <g id="g-2" transform="scale(0.1)">
      <path d="m 1700.98,3040.85 c 0,-40 -32.5,-72.4 -72.5,-72.4 -40.11,0 -72.5,32.4 -72.5,72.4 0,40.1 72.5,142.6 72.5,142.6 0,0 72.5,-102.5 72.5,-142.6" style="fill:#a1e0f0;fill-opacity:1;fill-rule:nonzero;stroke:none" id="path238"></path>
      <path d="m 1700.98,3040.85 c 0,-40 -32.5,-72.4 -72.5,-72.4 v 215 c 0,0 72.5,-102.5 72.5,-142.6" style="fill:#ace4f5;fill-opacity:1;fill-rule:nonzero;stroke:none" id="path240"></path>
      <path d="m 1628.48,2988.45 v 10 c 23.43,0 42.5,19.02 42.5,42.4 h 10 c 0,-28.9 -23.55,-52.4 -52.5,-52.4" style="fill:#ffffff;fill-opacity:1;fill-rule:nonzero;stroke:none" id="path242"></path>
      <path d="m 1511.7,3112.71 c 0,-19.78 -16.07,-35.79 -35.84,-35.79 -19.82,0 -35.83,16.01 -35.83,35.79 0,19.81 35.83,70.48 35.83,70.48 0,0 35.84,-50.67 35.84,-70.48" style="fill:#a1e0f0;fill-opacity:1;fill-rule:nonzero;stroke:none" id="path244"></path>
      <path d="m 1511.7,3112.71 c 0,-19.78 -16.07,-35.79 -35.84,-35.79 v 106.27 c 0,0 35.84,-50.67 35.84,-70.48" style="fill:#ace4f5;fill-opacity:1;fill-rule:nonzero;stroke:none" id="path246"></path>
    </g>
  </g>
</svg>