<svg viewBox="259.857 160.394 85 85" width="85px" height="85px" xmlns="http://www.w3.org/2000/svg">
  <defs></defs>
  <path d="M 333.524 217.281 C 328.03 228.948 316.19 237.013 302.445 237.013 C 291.925 237.013 282.512 232.281 276.232 224.826 C 271.165 218.853 268.125 211.12 268.125 202.68 C 268.125 183.72 283.485 168.346 302.445 168.346 C 304.35 168.346 306.205 168.508 308.017 168.8 C 296.084 172.04 287.285 182.92 287.285 195.88 C 287.285 201.013 288.672 205.826 291.084 209.974 C 295.938 218.333 304.992 223.961 315.364 223.961 C 322.297 223.961 328.63 221.44 333.524 217.281" style="fill:#fbdc46;fill-opacity:1;fill-rule:nonzero;stroke:none" id="path248"></path>
  <path d="M 287.285 195.88 C 287.285 201.013 288.672 205.826 291.084 209.974 L 276.232 224.826 C 271.165 218.853 268.125 211.12 268.125 202.68 C 268.125 183.72 283.485 168.346 302.445 168.346 C 304.35 168.346 306.205 168.508 308.017 168.8 C 296.084 172.04 287.285 182.92 287.285 195.88" style="fill:#fae845;fill-opacity:1;fill-rule:nonzero;stroke:none" id="path250"></path>
  <path d="M 302.445 233.013 C 285.726 233.013 272.125 219.405 272.125 202.68 L 274.792 202.68 C 274.792 217.934 287.196 230.346 302.445 230.346 L 302.445 233.013" style="fill:#ffffff;fill-opacity:1;fill-rule:nonzero;stroke:none" id="path252"></path>
  <path d="M 313.084 195.099 L 322.288 196.615 L 313.084 198.131 L 311.569 207.336 L 310.053 198.131 L 300.848 196.617 L 310.053 195.099 L 311.569 185.896 L 313.084 195.099" style="fill: rgb(250, 232, 69); fill-opacity: 1; fill-rule: nonzero; stroke: none;" id="path254"></path>
  <path d="M 323.822 183.267 L 328.424 184.026 L 323.822 184.784 L 323.064 189.386 L 322.305 184.784 L 317.704 184.026 L 322.305 183.267 L 323.064 178.666 L 323.822 183.267" style="fill: rgb(250, 232, 69); fill-opacity: 1; fill-rule: nonzero; stroke: none;" id="path256"></path>
</svg>