<svg viewBox="259.857 160.394 85 85" width="85px" height="85px" xmlns="http://www.w3.org/2000/svg">
  <defs></defs>
  <g transform="matrix(0.858961, 0, 0, 0.858961, 50.755989, 38.270512)" style="">
    <title>Moon</title>
    <path d="M 298.565 184.206 C 295.423 190.88 288.65 195.493 280.788 195.493 C 274.771 195.493 269.387 192.786 265.795 188.522 C 262.897 185.105 261.158 180.682 261.158 175.855 C 261.158 165.01 269.944 156.216 280.788 156.216 C 281.878 156.216 282.939 156.309 283.976 156.476 C 277.15 158.329 272.117 164.552 272.117 171.965 C 272.117 174.901 272.91 177.654 274.29 180.027 C 277.067 184.808 282.245 188.027 288.178 188.027 C 292.144 188.027 295.766 186.585 298.565 184.206" style="fill: rgb(251, 220, 70); fill-opacity: 1; fill-rule: nonzero; stroke: none;" id="path248"></path>
    <path d="M 272.117 171.965 C 272.117 174.901 272.91 177.654 274.29 180.027 L 265.795 188.522 C 262.897 185.105 261.158 180.682 261.158 175.855 C 261.158 165.01 269.944 156.216 280.788 156.216 C 281.878 156.216 282.939 156.309 283.976 156.476 C 277.15 158.329 272.117 164.552 272.117 171.965" style="fill: rgb(250, 232, 69); fill-opacity: 1; fill-rule: nonzero; stroke: none;" id="path250"></path>
    <path d="M 280.788 193.205 C 271.225 193.205 263.446 185.421 263.446 175.855 L 264.971 175.855 C 264.971 184.58 272.066 191.679 280.788 191.679 L 280.788 193.205" style="fill: rgb(255, 255, 255); fill-opacity: 1; fill-rule: nonzero; stroke: none;" id="path252"></path>
  </g>
  <g id="g8" transform="matrix(1.165768, 0, 0, -1.165768, 112.762337, 472.035217)" style="">
    <title>Cloud</title>
    <g id="g10" transform="scale(0.1)">
      <path d="M 1977.768 2146.658 C 1977.768 2114.838 1964.905 2085.968 1943.999 2065.148 C 1923.085 2044.348 1894.327 2031.398 1862.495 2031.398 L 1380.331 2031.398 C 1325.049 2031.398 1280.166 2076.278 1280.166 2131.558 C 1280.166 2186.848 1325.049 2231.628 1380.331 2231.628 C 1398.081 2231.628 1414.706 2227.038 1429.194 2218.878 C 1426.85 2225.408 1425.413 2232.438 1425.413 2239.778 C 1425.413 2273.548 1452.757 2300.778 1486.51 2300.778 C 1506.405 2300.778 1524.155 2291.188 1535.276 2276.308 C 1540.577 2352.708 1601.471 2413.798 1677.874 2418.898 C 1681.343 2419.208 1684.807 2419.308 1688.378 2419.308 C 1773.245 2419.308 1842.096 2350.458 1842.096 2265.588 C 1842.096 2263.648 1841.889 2261.818 1841.792 2259.878 C 1848.514 2261.108 1855.452 2261.818 1862.495 2261.818 C 1926.147 2261.818 1977.768 2210.208 1977.768 2146.658" style="fill:#42aecb;fill-opacity:1;fill-rule:nonzero;stroke:none" id="path342"></path>
      <path d="M 1977.619 2146.658 C 1977.619 2114.838 1964.756 2085.968 1943.85 2065.148 C 1922.936 2044.348 1894.178 2031.398 1862.346 2031.398 L 1677.725 2031.398 L 1677.725 2418.898 C 1681.194 2419.208 1684.658 2419.308 1688.229 2419.308 C 1773.096 2419.308 1841.947 2350.458 1841.947 2265.588 C 1841.947 2263.648 1841.74 2261.818 1841.643 2259.878 C 1848.365 2261.108 1855.303 2261.818 1862.346 2261.818 C 1925.998 2261.818 1977.619 2210.208 1977.619 2146.658" style="fill:#47b9d4;fill-opacity:1;fill-rule:nonzero;stroke:none" id="path344"></path>
      <path d="M 1804.678 2265.208 L 1789.678 2265.208 C 1789.678 2321.348 1744.006 2367.018 1687.861 2367.018 C 1684.674 2367.018 1681.514 2366.858 1678.404 2366.578 L 1677.049 2381.518 C 1680.608 2381.838 1684.217 2382.018 1687.861 2382.018 C 1752.276 2382.018 1804.678 2329.618 1804.678 2265.208" style="fill:#ffffff;fill-opacity:1;fill-rule:nonzero;stroke:none" id="path346"></path>
    </g>
  </g>
  <path d="M 331.791 191.832 L 336.94 190.984 L 331.791 190.135 L 330.943 184.986 L 330.095 190.135 L 324.946 190.983 L 330.095 191.832 L 330.943 196.98 L 331.791 191.832" style="fill: rgb(250, 232, 69); fill-opacity: 1; fill-rule: nonzero; stroke: none;" id="path254" transform="matrix(-1, 0, 0, -1, 661.886012, 381.965987)"></path>
  <path d="M 324.936 184.364 L 327.511 183.939 L 324.936 183.515 L 324.512 180.941 L 324.087 183.515 L 321.513 183.939 L 324.087 184.364 L 324.512 186.938 L 324.936 184.364" style="fill: rgb(250, 232, 69); fill-opacity: 1; fill-rule: nonzero; stroke: none;" id="path256" transform="matrix(-1, 0, 0, -1, 649.023987, 367.878997)"></path>
</svg>