<svg viewBox="259.857 160.394 85 85" width="85px" height="85px" xmlns="http://www.w3.org/2000/svg">
  <defs></defs>
  <path d="M 312.305 197.547 C 312.305 207.867 303.937 216.235 293.617 216.235 C 283.297 216.235 274.929 207.867 274.929 197.547 C 274.929 187.227 283.297 178.859 293.617 178.859 C 303.937 178.859 312.305 187.227 312.305 197.547" style="fill: rgb(251, 197, 8); fill-opacity: 1; fill-rule: nonzero; stroke: none;" id="path12"></path>
  <path d="M 309.417 210.829 C 310.343 209.941 312.289 206.81 313.001 204.631 C 314.94 206.384 317.247 209.209 318.846 212.151 C 315.516 212.229 311.892 211.635 309.417 210.829" style="fill: rgb(251, 197, 8); fill-opacity: 1; fill-rule: nonzero; stroke: none;" id="path14"></path>
  <path d="M 300.651 216.952 C 302.125 216.382 301.905 216.5 303.921 215.444 C 305.633 214.305 304.399 215.282 306.876 213.379 C 308.356 218.201 308.173 222.82 308.173 222.82 C 308.173 222.82 304.042 220.643 300.651 216.952" style="fill: rgb(251, 197, 8); fill-opacity: 1; fill-rule: nonzero; stroke: none;" id="path16"></path>
  <path d="M 290.009 217.891 C 294.55 218.438 294.788 218.086 296.07 218.06 C 296.737 217.97 297.178 217.875 297.178 217.875 C 296.498 220.99 294.991 224.427 293.582 226.699 C 291.916 223.93 290.678 220.815 290.009 217.891" style="fill: rgb(251, 197, 8); fill-opacity: 1; fill-rule: nonzero; stroke: none;" id="path18"></path>
  <path d="M 280.336 213.349 C 281.222 214.274 284.353 216.217 286.533 216.932 C 284.696 218.964 281.879 221.22 279.014 222.776 C 278.934 219.398 279.546 215.771 280.336 213.349" style="fill: rgb(251, 197, 8); fill-opacity: 1; fill-rule: nonzero; stroke: none;" id="path20"></path>
  <path d="M 274.211 204.581 C 274.782 206.056 274.664 205.835 275.72 207.851 C 276.858 209.563 275.882 208.329 277.785 210.807 C 272.963 212.285 268.344 212.104 268.344 212.104 C 268.344 212.104 270.522 207.971 274.211 204.581" style="fill: rgb(251, 197, 8); fill-opacity: 1; fill-rule: nonzero; stroke: none;" id="path22"></path>
  <path d="M 273.274 193.937 C 272.958 196.556 273.02 195.564 272.979 197.53 C 272.92 198.431 273.091 199.326 273.105 200 C 273.194 200.667 273.29 201.108 273.29 201.108 C 270.194 200.432 266.766 198.94 264.465 197.512 C 267.225 195.851 270.362 194.605 273.274 193.937" style="fill: rgb(251, 197, 8); fill-opacity: 1; fill-rule: nonzero; stroke: none;" id="path24"></path>
  <path d="M 277.817 184.267 C 277.817 184.267 277.488 184.58 277.116 185.144 C 276.028 186.655 274.906 188.407 274.232 190.463 C 272.2 188.626 269.945 185.808 268.388 182.944 C 271.718 182.864 275.306 183.447 277.817 184.267" style="fill: rgb(251, 197, 8); fill-opacity: 1; fill-rule: nonzero; stroke: none;" id="path26"></path>
  <path d="M 286.583 178.141 C 283.248 179.434 281.903 180.527 280.357 181.715 C 278.878 176.893 279.061 172.274 279.061 172.274 C 279.061 172.274 283.207 174.468 286.583 178.141" style="fill: rgb(251, 197, 8); fill-opacity: 1; fill-rule: nonzero; stroke: none;" id="path28"></path>
  <path d="M 297.228 177.204 C 292.683 176.656 292.446 177.008 291.164 177.035 C 290.497 177.125 290.056 177.22 290.056 177.22 C 290.712 174.208 292.155 170.808 293.653 168.396 C 295.156 170.893 296.499 174.033 297.228 177.204" style="fill: rgb(251, 197, 8); fill-opacity: 1; fill-rule: nonzero; stroke: none;" id="path30"></path>
  <path d="M 306.898 181.746 C 306.022 180.83 302.896 178.882 300.701 178.163 C 302.454 176.224 305.279 173.917 308.22 172.318 C 308.3 175.695 307.688 179.324 306.898 181.746" style="fill: rgb(251, 197, 8); fill-opacity: 1; fill-rule: nonzero; stroke: none;" id="path32"></path>
  <path d="M 313.023 190.513 C 312.452 189.039 312.572 189.259 311.514 187.243 C 310.376 185.532 311.351 186.765 309.449 184.287 C 314.271 182.808 318.889 182.991 318.889 182.991 C 318.889 182.991 316.702 187.133 313.023 190.513" style="fill: rgb(251, 197, 8); fill-opacity: 1; fill-rule: nonzero; stroke: none;" id="path34"></path>
  <path d="M 313.96 201.156 C 314.276 198.538 314.214 199.529 314.256 197.565 C 314.314 196.662 314.143 195.769 314.129 195.094 C 314.039 194.427 313.945 193.987 313.944 193.987 C 317.061 194.666 320.497 196.173 322.769 197.582 C 320.271 199.086 317.13 200.43 313.96 201.156" style="fill: rgb(251, 197, 8); fill-opacity: 1; fill-rule: nonzero; stroke: none;" id="path36"></path>
  <path d="M 312.301 197.544 C 312.301 207.871 303.942 216.232 293.614 216.232 C 293.601 216.232 293.601 216.232 293.59 216.232 C 283.286 216.218 274.926 207.858 274.926 197.544 C 274.926 187.24 283.286 178.868 293.59 178.856 C 293.601 178.856 293.601 178.856 293.614 178.856 C 303.942 178.856 312.301 187.227 312.301 197.544" style="fill: rgb(251, 197, 8); fill-opacity: 1; fill-rule: nonzero; stroke: none;" id="path38"></path>
  <path d="M 318.842 212.144 C 315.516 212.232 311.892 211.634 309.424 210.823 C 310.347 209.94 312.289 206.813 313 204.632 C 314.943 206.389 317.247 209.204 318.842 212.144" style="fill: rgb(251, 197, 8); fill-opacity: 1; fill-rule: nonzero; stroke: none;" id="path40"></path>
  <path d="M 308.178 222.821 C 308.178 222.821 304.042 220.643 300.653 216.954 C 302.123 216.382 301.911 216.505 303.918 215.447 C 305.637 214.313 304.403 215.284 306.883 213.377 C 308.353 218.2 308.178 222.821 308.178 222.821" style="fill: rgb(251, 197, 8); fill-opacity: 1; fill-rule: nonzero; stroke: none;" id="path42"></path>
  <path d="M 297.176 217.876 C 296.504 220.978 295.01 224.403 293.59 226.671 C 293.59 226.684 293.577 226.684 293.577 226.696 C 291.92 223.931 290.674 220.816 290.012 217.889 C 291.719 218.087 292.817 218.176 293.59 218.188 C 294.872 218.225 295.271 218.075 296.068 218.062 C 296.74 217.975 297.176 217.876 297.176 217.876" style="fill: rgb(251, 197, 8); fill-opacity: 1; fill-rule: nonzero; stroke: none;" id="path44"></path>
  <path d="M 280.336 213.349 C 281.222 214.274 284.353 216.217 286.533 216.932 C 284.696 218.964 281.879 221.22 279.014 222.776 C 278.934 219.398 279.546 215.771 280.336 213.349" style="fill: rgb(251, 197, 8); fill-opacity: 1; fill-rule: nonzero; stroke: none;" id="path46"></path>
  <path d="M 274.211 204.581 C 274.782 206.056 274.664 205.835 275.72 207.851 C 276.858 209.563 275.882 208.329 277.785 210.807 C 272.963 212.285 268.344 212.104 268.344 212.104 C 268.344 212.104 270.522 207.971 274.211 204.581" style="fill: rgb(251, 197, 8); fill-opacity: 1; fill-rule: nonzero; stroke: none;" id="path48"></path>
  <path d="M 273.274 193.937 C 272.958 196.556 273.02 195.564 272.979 197.53 C 272.92 198.431 273.091 199.326 273.105 200 C 273.194 200.667 273.29 201.108 273.29 201.108 C 270.194 200.432 266.766 198.94 264.465 197.512 C 267.225 195.851 270.362 194.605 273.274 193.937" style="fill: rgb(251, 197, 8); fill-opacity: 1; fill-rule: nonzero; stroke: none;" id="path50"></path>
  <path d="M 277.817 184.267 C 277.817 184.267 277.488 184.58 277.116 185.144 C 276.028 186.655 274.906 188.407 274.232 190.463 C 272.2 188.626 269.945 185.808 268.388 182.944 C 271.718 182.864 275.306 183.447 277.817 184.267" style="fill: rgb(251, 197, 8); fill-opacity: 1; fill-rule: nonzero; stroke: none;" id="path52"></path>
  <path d="M 286.583 178.141 C 283.248 179.434 281.903 180.527 280.357 181.715 C 278.878 176.893 279.061 172.274 279.061 172.274 C 279.061 172.274 283.207 174.468 286.583 178.141" style="fill: rgb(251, 197, 8); fill-opacity: 1; fill-rule: nonzero; stroke: none;" id="path54"></path>
  <path d="M 297.228 177.198 C 295.483 176.987 294.361 176.912 293.59 176.899 C 292.343 176.875 291.945 177.024 291.159 177.037 C 290.499 177.124 290.051 177.224 290.051 177.224 C 290.698 174.246 292.119 170.895 293.59 168.489 C 293.614 168.453 293.626 168.427 293.651 168.39 C 295.159 170.895 296.504 174.034 297.228 177.198" style="fill: rgb(251, 197, 8); fill-opacity: 1; fill-rule: nonzero; stroke: none;" id="path56"></path>
  <path d="M 306.894 181.746 C 306.023 180.836 302.896 178.881 300.702 178.158 C 302.459 176.226 305.275 173.923 308.215 172.315 C 308.302 175.69 307.691 179.328 306.894 181.746" style="fill: rgb(251, 197, 8); fill-opacity: 1; fill-rule: nonzero; stroke: none;" id="path58"></path>
  <path d="M 318.892 182.991 C 318.892 182.991 316.699 187.128 313.025 190.517 C 312.452 189.034 312.575 189.259 311.516 187.24 C 310.37 185.533 311.355 186.767 309.448 184.287 C 314.27 182.804 318.892 182.991 318.892 182.991" style="fill: rgb(251, 197, 8); fill-opacity: 1; fill-rule: nonzero; stroke: none;" id="path60"></path>
  <path d="M 314.257 197.568 C 314.307 196.659 314.146 195.774 314.133 195.089 C 314.033 194.43 313.945 193.981 313.945 193.981 C 317.061 194.666 320.5 196.173 322.767 197.581 C 320.275 199.089 317.136 200.434 313.959 201.156 C 314.282 198.54 314.208 199.524 314.257 197.568" style="fill: rgb(251, 197, 8); fill-opacity: 1; fill-rule: nonzero; stroke: none;" id="path62"></path>
  <path d="M 297.228 177.198 C 295.483 176.987 294.361 176.912 293.59 176.899 L 293.59 168.489 C 293.614 168.453 293.626 168.427 293.651 168.39 C 295.159 170.895 296.504 174.034 297.228 177.198" style="fill: rgb(249, 220, 6); fill-opacity: 1; fill-rule: nonzero; stroke: none;" id="path64"></path>
  <path d="M 296.068 218.062 C 296.74 217.975 297.176 217.876 297.176 217.876 C 296.504 220.978 295.01 224.403 293.59 226.671 L 293.59 218.188 C 294.872 218.225 295.271 218.075 296.068 218.062" style="fill: rgb(249, 220, 6); fill-opacity: 1; fill-rule: nonzero; stroke: none;" id="path66"></path>
  <path d="M 293.614 216.232 C 293.601 216.232 293.601 216.232 293.59 216.232 L 293.59 178.856 C 293.601 178.856 293.601 178.856 293.614 178.856 C 303.942 178.856 312.301 187.227 312.301 197.544 C 312.301 207.871 303.942 216.232 293.614 216.232" style="fill: rgb(249, 220, 6); fill-opacity: 1; fill-rule: nonzero; stroke: none;" id="path68"></path>
  <path d="M 306.883 213.377 C 308.353 218.2 308.178 222.821 308.178 222.821 C 308.178 222.821 304.042 220.643 300.653 216.954 C 302.123 216.382 301.911 216.505 303.918 215.447 C 305.637 214.313 304.403 215.284 306.883 213.377" style="fill: rgb(249, 220, 6); fill-opacity: 1; fill-rule: nonzero; stroke: none;" id="path70"></path>
  <path d="M 306.894 181.746 C 306.023 180.836 302.896 178.881 300.702 178.158 C 302.459 176.226 305.275 173.923 308.215 172.315 C 308.302 175.69 307.691 179.328 306.894 181.746" style="fill: rgb(249, 220, 6); fill-opacity: 1; fill-rule: nonzero; stroke: none;" id="path72"></path>
  <path d="M 318.842 212.144 C 315.516 212.232 311.892 211.634 309.424 210.823 C 310.347 209.94 312.289 206.813 313 204.632 C 314.943 206.389 317.247 209.204 318.842 212.144" style="fill: rgb(249, 220, 6); fill-opacity: 1; fill-rule: nonzero; stroke: none;" id="path74"></path>
  <path d="M 311.516 187.24 C 310.37 185.533 311.355 186.767 309.448 184.287 C 314.27 182.804 318.892 182.991 318.892 182.991 C 318.892 182.991 316.699 187.128 313.025 190.517 C 312.452 189.034 312.575 189.259 311.516 187.24" style="fill: rgb(249, 220, 6); fill-opacity: 1; fill-rule: nonzero; stroke: none;" id="path76"></path>
  <path d="M 314.257 197.568 C 314.307 196.659 314.146 195.774 314.133 195.089 C 314.033 194.43 313.945 193.981 313.945 193.981 C 317.061 194.666 320.5 196.173 322.767 197.581 C 320.275 199.089 317.136 200.434 313.959 201.156 C 314.282 198.54 314.208 199.524 314.257 197.568" style="fill: rgb(249, 220, 6); fill-opacity: 1; fill-rule: nonzero; stroke: none;" id="path78"></path>
  <path d="M 310.159 197.544 L 308.215 197.544 C 308.215 189.493 301.665 182.943 293.614 182.943 L 293.593 180.999 L 293.614 180.999 C 302.737 180.999 310.159 188.42 310.159 197.544" style="fill: rgb(255, 255, 255); fill-opacity: 1; fill-rule: nonzero; stroke: none;" id="path80"></path>
  <path d="M 304.416 197.544 C 304.416 203.511 299.582 208.345 293.614 208.345 C 293.601 208.345 293.601 208.345 293.601 208.345 L 293.59 208.345 C 287.634 208.32 282.813 203.498 282.813 197.544 C 282.813 191.588 287.634 186.767 293.59 186.742 L 293.601 186.742 C 293.601 186.742 293.601 186.742 293.614 186.742 C 299.582 186.742 304.416 191.588 304.416 197.544" style="fill: rgb(251, 197, 8); fill-opacity: 1; fill-rule: nonzero; stroke: none;" id="path82"></path>
  <path d="M 293.59 186.742 L 293.59 208.345 C 287.634 208.32 282.813 203.498 282.813 197.544 C 282.813 191.588 287.634 186.767 293.59 186.742" style="fill: rgb(249, 220, 6); fill-opacity: 1; fill-rule: nonzero; stroke: none;" id="path84"></path>
  <g id="g8" transform="matrix(1.165768, 0, 0, -1.165768, 112.801979, 472.328644)" style="">
    <g id="g10" transform="scale(0.1)">
      <path d="M 1977.619 2146.658 C 1977.619 2114.838 1964.756 2085.968 1943.85 2065.148 C 1922.936 2044.348 1894.178 2031.398 1862.346 2031.398 L 1380.182 2031.398 C 1324.9 2031.398 1280.017 2076.278 1280.017 2131.558 C 1280.017 2186.848 1324.9 2231.628 1380.182 2231.628 C 1397.932 2231.628 1414.557 2227.038 1429.045 2218.878 C 1426.701 2225.408 1425.264 2232.438 1425.264 2239.778 C 1425.264 2273.548 1452.608 2300.778 1486.361 2300.778 C 1506.256 2300.778 1524.006 2291.188 1535.127 2276.308 C 1540.428 2352.708 1601.322 2413.798 1677.725 2418.898 C 1681.194 2419.208 1684.658 2419.308 1688.229 2419.308 C 1773.096 2419.308 1841.947 2350.458 1841.947 2265.588 C 1841.947 2263.648 1841.74 2261.818 1841.643 2259.878 C 1848.365 2261.108 1855.303 2261.818 1862.346 2261.818 C 1925.998 2261.818 1977.619 2210.208 1977.619 2146.658" style="fill:#42aecb;fill-opacity:1;fill-rule:nonzero;stroke:none" id="path342"></path>
      <path d="M 1977.619 2146.658 C 1977.619 2114.838 1964.756 2085.968 1943.85 2065.148 C 1922.936 2044.348 1894.178 2031.398 1862.346 2031.398 L 1677.725 2031.398 L 1677.725 2418.898 C 1681.194 2419.208 1684.658 2419.308 1688.229 2419.308 C 1773.096 2419.308 1841.947 2350.458 1841.947 2265.588 C 1841.947 2263.648 1841.74 2261.818 1841.643 2259.878 C 1848.365 2261.108 1855.303 2261.818 1862.346 2261.818 C 1925.998 2261.818 1977.619 2210.208 1977.619 2146.658" style="fill:#47b9d4;fill-opacity:1;fill-rule:nonzero;stroke:none" id="path344"></path>
      <path d="M 1804.678 2265.208 L 1789.678 2265.208 C 1789.678 2321.348 1744.006 2367.018 1687.861 2367.018 C 1684.674 2367.018 1681.514 2366.858 1678.404 2366.578 L 1677.049 2381.518 C 1680.608 2381.838 1684.217 2382.018 1687.861 2382.018 C 1752.276 2382.018 1804.678 2329.618 1804.678 2265.208" style="fill:#ffffff;fill-opacity:1;fill-rule:nonzero;stroke:none" id="path346"></path>
    </g>
  </g>
</svg>