<svg version="1.1" id="svg2" width="85px" height="85px" viewBox="0 0 85 85" xmlns="http://www.w3.org/2000/svg">
  <defs id="defs6"></defs>
  <g id="g8" transform="matrix(0.224697, 0, 0, -0.224697, -3.04408, 83.783302)" style="">
    <g id="g10" transform="scale(0.1)">
      <path d="M 1748.312 243.304 C 1686.689 243.304 1636.678 293.275 1636.678 354.937 L 1636.678 2810.853 C 1636.678 2872.519 1686.689 2922.485 1748.312 2922.485 C 1809.977 2922.485 1859.943 2872.519 1859.943 2810.853 L 1859.943 354.937 C 1859.943 293.275 1809.977 243.304 1748.312 243.304" style="fill: rgb(238, 237, 237); fill-opacity: 1; fill-rule: nonzero; stroke: none;" id="path306"></path>
      <path d="M 1748.312 1950.925 C 1719.778 1950.925 1691.199 1961.821 1669.408 1983.655 L 1228.459 2424.604 C 1184.834 2468.186 1184.834 2538.826 1228.459 2582.454 C 1272.042 2626.034 1342.682 2626.034 1386.31 2582.454 L 1827.257 2141.505 C 1870.883 2097.878 1870.883 2027.238 1827.257 1983.655 C 1805.467 1961.821 1776.888 1950.925 1748.312 1950.925" style="fill: rgb(238, 237, 237); fill-opacity: 1; fill-rule: nonzero; stroke: none;" id="path308"></path>
      <path d="M 1748.312 1950.925 C 1719.778 1950.925 1691.199 1961.821 1669.408 1983.655 C 1625.782 2027.238 1625.782 2097.878 1669.408 2141.505 L 2110.357 2582.454 C 2153.939 2626.034 2224.579 2626.034 2268.206 2582.454 C 2311.832 2538.826 2311.832 2468.186 2268.206 2424.604 L 1827.257 1983.655 C 1805.467 1961.821 1776.888 1950.925 1748.312 1950.925" style="fill: rgb(238, 237, 237); fill-opacity: 1; fill-rule: nonzero; stroke: none;" id="path310"></path>
      <path d="M 1307.363 554.401 C 1278.829 554.401 1250.251 565.297 1228.459 587.088 C 1184.834 630.714 1184.834 701.355 1228.459 744.936 L 1669.408 1185.885 C 1712.99 1229.51 1783.63 1229.51 1827.257 1185.885 C 1870.883 1142.304 1870.883 1071.662 1827.257 1028.037 L 1386.31 587.088 C 1364.518 565.297 1335.939 554.401 1307.363 554.401" style="fill: rgb(238, 237, 237); fill-opacity: 1; fill-rule: nonzero; stroke: none;" id="path312"></path>
      <path d="M 2189.259 554.401 C 2160.726 554.401 2132.148 565.297 2110.357 587.088 L 1669.408 1028.037 C 1625.782 1071.662 1625.782 1142.304 1669.408 1185.885 C 1712.99 1229.51 1783.63 1229.51 1827.257 1185.885 L 2268.206 744.936 C 2311.832 701.355 2311.832 630.714 2268.206 587.088 C 2246.415 565.297 2217.837 554.401 2189.259 554.401" style="fill: rgb(238, 237, 237); fill-opacity: 1; fill-rule: nonzero; stroke: none;" id="path314"></path>
      <path d="M 2963.274 1529.739 L 507.357 1529.739 C 445.736 1529.739 395.725 1579.707 395.725 1641.373 C 395.725 1703.038 445.736 1753.004 507.357 1753.004 L 2963.274 1753.004 C 3024.94 1753.004 3074.906 1703.038 3074.906 1641.373 C 3074.906 1579.707 3024.94 1529.739 2963.274 1529.739" style="fill: rgb(238, 237, 237); fill-opacity: 1; fill-rule: nonzero; stroke: none;" id="path316"></path>
      <path d="M 2228.018 1471.262 C 2199.441 1471.262 2170.862 1482.158 2149.071 1503.949 C 2105.491 1547.574 2105.491 1618.214 2149.071 1661.797 L 2590.02 2102.745 C 2633.647 2146.371 2704.286 2146.371 2747.87 2102.745 C 2791.495 2059.164 2791.495 1988.523 2747.87 1944.898 L 2306.921 1503.949 C 2285.129 1482.158 2256.552 1471.262 2228.018 1471.262" style="fill: rgb(238, 237, 237); fill-opacity: 1; fill-rule: nonzero; stroke: none;" id="path318"></path>
      <path d="M 2668.967 1030.314 C 2640.389 1030.314 2611.811 1041.209 2590.02 1063 L 2149.071 1503.949 C 2105.491 1547.574 2105.491 1618.214 2149.071 1661.797 C 2192.699 1705.422 2263.339 1705.422 2306.921 1661.797 L 2747.87 1220.848 C 2791.495 1177.266 2791.495 1106.626 2747.87 1063 C 2726.078 1041.209 2697.499 1030.314 2668.967 1030.314" style="fill: rgb(238, 237, 237); fill-opacity: 1; fill-rule: nonzero; stroke: none;" id="path320"></path>
      <path d="M 1272.399 1471.262 C 1243.866 1471.262 1215.287 1482.158 1193.498 1503.949 L 752.548 1944.898 C 708.922 1988.523 708.922 2059.164 752.548 2102.745 C 796.13 2146.371 866.77 2146.371 910.397 2102.745 L 1351.346 1661.797 C 1394.926 1618.214 1394.926 1547.574 1351.346 1503.949 C 1329.554 1482.158 1300.977 1471.262 1272.399 1471.262" style="fill: rgb(238, 237, 237); fill-opacity: 1; fill-rule: nonzero; stroke: none;" id="path322"></path>
      <path d="M 831.451 1030.314 C 802.917 1030.314 774.338 1041.209 752.548 1063 C 708.922 1106.626 708.922 1177.266 752.548 1220.848 L 1193.498 1661.797 C 1237.078 1705.422 1307.72 1705.422 1351.346 1661.797 C 1394.926 1618.214 1394.926 1547.574 1351.346 1503.949 L 910.397 1063 C 888.605 1041.209 860.028 1030.314 831.451 1030.314" style="fill: rgb(238, 237, 237); fill-opacity: 1; fill-rule: nonzero; stroke: none;" id="path324"></path>
      <path d="M 1993.902 1582.896 C 1993.902 1447.284 1883.966 1337.303 1748.312 1337.303 C 1612.7 1337.303 1502.719 1447.284 1502.719 1582.896 C 1502.719 1718.506 1612.7 1828.486 1748.312 1828.486 C 1883.966 1828.486 1993.902 1718.506 1993.902 1582.896" style="fill: rgb(255, 255, 255); fill-opacity: 1; fill-rule: nonzero; stroke: none;" id="path326"></path>
      <path d="M 1748.312 1716.853 C 1674.455 1716.853 1614.352 1656.751 1614.352 1582.896 C 1614.352 1509.039 1674.455 1448.936 1748.312 1448.936 C 1822.212 1448.936 1882.269 1509.039 1882.269 1582.896 C 1882.269 1656.751 1822.212 1716.853 1748.312 1716.853 Z M 1748.312 1225.672 C 1551.347 1225.672 1391.088 1385.931 1391.088 1582.896 C 1391.088 1779.86 1551.347 1940.12 1748.312 1940.12 C 1945.319 1940.12 2105.536 1779.86 2105.536 1582.896 C 2105.536 1385.931 1945.319 1225.672 1748.312 1225.672" style="fill: rgb(238, 237, 237); fill-opacity: 1; fill-rule: nonzero; stroke: none;" id="path328"></path>
      <path d="M 2976.269 1694.527 L 2497.498 1694.527 L 2747.87 1944.898 C 2791.495 1988.523 2791.495 2059.164 2747.87 2102.745 C 2704.286 2146.371 2633.647 2146.371 2590.02 2102.745 L 2181.758 1694.527 L 2087.45 1694.527 C 2052.042 1801.784 1967.245 1886.626 1859.943 1921.989 L 1859.943 2016.342 L 2268.206 2424.604 C 2311.832 2468.186 2311.832 2538.826 2268.206 2582.454 C 2224.579 2626.034 2153.939 2626.034 2110.357 2582.454 L 1859.943 2332.038 L 1859.943 2810.853 C 1859.943 2872.519 1809.977 2922.485 1748.312 2922.485 L 1748.312 1717.568 C 1822.702 1717.568 1882.984 1657.242 1882.984 1582.896 C 1882.984 1508.547 1822.702 1448.221 1748.312 1448.221 L 1748.312 243.304 C 1809.977 243.304 1859.943 293.275 1859.943 354.937 L 1859.943 837.502 L 2110.357 587.088 C 2132.148 565.297 2160.726 554.401 2189.259 554.401 C 2217.837 554.401 2246.415 565.297 2268.206 587.088 C 2311.832 630.669 2311.832 701.355 2268.206 744.936 L 1859.943 1153.198 L 1859.943 1243.8 C 1967.245 1279.166 2052.042 1364.005 2087.45 1471.262 L 2181.758 1471.262 L 2590.02 1063 C 2611.811 1041.209 2640.389 1030.314 2668.967 1030.314 C 2697.499 1030.314 2726.078 1041.209 2747.87 1063 C 2791.495 1106.626 2791.495 1177.266 2747.87 1220.848 L 2497.498 1471.262 L 2976.269 1471.262 C 3037.935 1471.262 3087.901 1521.23 3087.901 1582.896 C 3087.901 1644.561 3037.935 1694.527 2976.269 1694.527" style="fill: rgb(248, 248, 248); fill-opacity: 1; fill-rule: nonzero; stroke: none;" id="path330"></path>
      <path d="M 3015.341 2291.762 C 2978.368 2291.762 2948.36 2321.768 2948.36 2358.742 L 2948.36 3341.152 C 2948.36 3378.125 2978.368 3408.133 3015.341 3408.133 C 3052.357 3408.133 3082.32 3378.125 3082.32 3341.152 L 3082.32 2358.742 C 3082.32 2321.768 3052.357 2291.762 3015.341 2291.762" style="fill: rgb(238, 237, 237); fill-opacity: 1; fill-rule: nonzero; stroke: none;" id="path332"></path>
      <path d="M 3506.523 2782.944 L 2524.158 2782.944 C 2487.184 2782.944 2457.178 2812.952 2457.178 2849.925 C 2457.178 2886.896 2487.184 2916.904 2524.158 2916.904 L 3506.523 2916.904 C 3543.541 2916.904 3573.504 2886.896 3573.504 2849.925 C 3573.504 2812.952 3543.541 2782.944 3506.523 2782.944" style="fill: rgb(238, 237, 237); fill-opacity: 1; fill-rule: nonzero; stroke: none;" id="path334"></path>
      <path d="M 3362.697 2435.634 C 3345.549 2435.634 3328.403 2442.154 3315.319 2455.236 L 2620.697 3149.904 C 2594.53 3176.07 2594.53 3218.445 2620.697 3244.613 C 2646.865 3270.779 2689.239 3270.779 2715.406 3244.613 L 3410.029 2549.946 C 3436.195 2523.779 3436.195 2481.404 3410.029 2455.236 C 3396.945 2442.154 3379.843 2435.634 3362.697 2435.634" style="fill: rgb(238, 237, 237); fill-opacity: 1; fill-rule: nonzero; stroke: none;" id="path336"></path>
      <path d="M 2668.029 2435.634 C 2650.883 2435.634 2633.78 2442.154 2620.697 2455.236 C 2594.53 2481.404 2594.53 2523.779 2620.697 2549.946 L 3315.319 3244.613 C 3341.486 3270.779 3383.861 3270.779 3410.029 3244.613 C 3436.195 3218.445 3436.195 3176.07 3410.029 3149.904 L 2715.406 2455.236 C 2702.323 2442.154 2685.176 2435.634 2668.029 2435.634" style="fill: rgb(238, 237, 237); fill-opacity: 1; fill-rule: nonzero; stroke: none;" id="path338"></path>
      <path d="M 3082.32 2358.742 L 3082.32 2688.237 L 3315.319 2455.236 C 3328.403 2442.154 3345.549 2435.634 3362.697 2435.634 C 3379.843 2435.634 3396.945 2442.154 3410.029 2455.236 C 3436.195 2481.358 3436.195 2523.823 3410.029 2549.946 L 3177.073 2782.944 L 3506.523 2782.944 C 3543.541 2782.944 3573.504 2812.952 3573.504 2849.925 C 3573.504 2886.896 3543.541 2916.904 3506.523 2916.904 L 3177.073 2916.904 L 3410.029 3149.904 C 3436.195 3176.025 3436.195 3218.49 3410.029 3244.613 C 3383.861 3270.779 3341.486 3270.779 3315.319 3244.613 L 3082.32 3011.614 L 3082.32 3341.152 C 3082.32 3378.125 3052.357 3408.133 3015.341 3408.133 L 3015.341 2291.762 C 3052.357 2291.762 3082.32 2321.768 3082.32 2358.742" style="fill: rgb(248, 248, 248); fill-opacity: 1; fill-rule: nonzero; stroke: none;" id="path340"></path>
    </g>
  </g>
</svg>