<svg viewBox="259.857 160.394 85 85" width="85px" height="85px" xmlns="http://www.w3.org/2000/svg">
  <defs></defs>
  <path d="M 328.196 202.823 C 328.196 216.983 316.716 228.463 302.556 228.463 C 288.396 228.463 276.916 216.983 276.916 202.823 C 276.916 188.663 288.396 177.183 302.556 177.183 C 316.716 177.183 328.196 188.663 328.196 202.823" style="fill:#fbc508;fill-opacity:1;fill-rule:nonzero;stroke:none" id="path12"></path>
  <path d="M 324.234 221.046 C 325.504 219.828 328.173 215.532 329.151 212.543 C 331.811 214.948 334.977 218.823 337.171 222.86 C 332.601 222.967 327.628 222.152 324.234 221.046" style="fill:#fbc508;fill-opacity:1;fill-rule:nonzero;stroke:none" id="path14"></path>
  <path d="M 312.207 229.448 C 314.23 228.664 313.928 228.828 316.693 227.378 C 319.041 225.816 317.349 227.155 320.747 224.546 C 322.777 231.16 322.527 237.498 322.527 237.498 C 322.527 237.498 316.858 234.51 312.207 229.448" style="fill:#fbc508;fill-opacity:1;fill-rule:nonzero;stroke:none" id="path16"></path>
  <path d="M 297.605 230.735 C 303.836 231.487 304.163 231.003 305.921 230.967 C 306.837 230.843 307.442 230.714 307.442 230.714 C 306.509 234.988 304.441 239.703 302.507 242.82 C 300.222 239.02 298.523 234.746 297.605 230.735" style="fill:#fbc508;fill-opacity:1;fill-rule:nonzero;stroke:none" id="path18"></path>
  <path d="M 284.334 224.503 C 285.55 225.772 289.846 228.439 292.836 229.419 C 290.316 232.208 286.45 235.303 282.52 237.438 C 282.411 232.803 283.25 227.827 284.334 224.503" style="fill:#fbc508;fill-opacity:1;fill-rule:nonzero;stroke:none" id="path20"></path>
  <path d="M 275.931 212.474 C 276.715 214.498 276.551 214.195 278.001 216.96 C 279.562 219.308 278.224 217.616 280.834 221.015 C 274.219 223.044 267.881 222.795 267.881 222.795 C 267.881 222.795 270.87 217.124 275.931 212.474" style="fill:#fbc508;fill-opacity:1;fill-rule:nonzero;stroke:none" id="path22"></path>
  <path d="M 274.645 197.871 C 274.211 201.464 274.297 200.103 274.24 202.8 C 274.16 204.036 274.394 205.263 274.413 206.188 C 274.536 207.104 274.666 207.71 274.667 207.71 C 270.419 206.782 265.716 204.735 262.559 202.774 C 266.346 200.496 270.65 198.787 274.645 197.871" style="fill:#fbc508;fill-opacity:1;fill-rule:nonzero;stroke:none" id="path24"></path>
  <path d="M 280.878 184.602 C 280.878 184.602 280.427 185.032 279.917 185.807 C 278.423 187.879 276.885 190.283 275.96 193.104 C 273.171 190.583 270.077 186.718 267.942 182.787 C 272.511 182.679 277.433 183.478 280.878 184.602" style="fill:#fbc508;fill-opacity:1;fill-rule:nonzero;stroke:none" id="path26"></path>
  <path d="M 292.905 176.199 C 288.329 177.971 286.485 179.472 284.364 181.102 C 282.335 174.486 282.585 168.148 282.585 168.148 C 282.585 168.148 288.274 171.159 292.905 176.199" style="fill:#fbc508;fill-opacity:1;fill-rule:nonzero;stroke:none" id="path28"></path>
  <path d="M 307.509 174.912 C 301.275 174.16 300.949 174.644 299.191 174.68 C 298.275 174.804 297.67 174.934 297.67 174.934 C 298.57 170.802 300.549 166.138 302.606 162.827 C 304.668 166.254 306.511 170.562 307.509 174.912" style="fill:#fbc508;fill-opacity:1;fill-rule:nonzero;stroke:none" id="path30"></path>
  <path d="M 320.778 181.144 C 319.575 179.888 315.287 177.215 312.276 176.228 C 314.68 173.568 318.556 170.402 322.592 168.208 C 322.701 172.843 321.862 177.82 320.778 181.144" style="fill:#fbc508;fill-opacity:1;fill-rule:nonzero;stroke:none" id="path32"></path>
  <path d="M 329.18 193.172 C 328.397 191.15 328.561 191.452 327.111 188.686 C 325.55 186.339 326.887 188.03 324.278 184.631 C 330.893 182.602 337.23 182.852 337.23 182.852 C 337.23 182.852 334.228 188.535 329.18 193.172" style="fill:#fbc508;fill-opacity:1;fill-rule:nonzero;stroke:none" id="path34"></path>
  <path d="M 330.467 207.776 C 330.9 204.183 330.815 205.543 330.873 202.847 C 330.952 201.61 330.717 200.384 330.699 199.458 C 330.575 198.543 330.446 197.938 330.445 197.938 C 334.721 198.87 339.436 200.938 342.553 202.872 C 339.125 204.935 334.817 206.779 330.467 207.776" style="fill:#fbc508;fill-opacity:1;fill-rule:nonzero;stroke:none" id="path36"></path>
  <path d="M 328.191 202.819 C 328.191 216.988 316.722 228.459 302.552 228.459 C 302.534 228.459 302.534 228.459 302.518 228.459 C 288.382 228.44 276.912 216.971 276.912 202.819 C 276.912 188.683 288.382 177.195 302.518 177.179 C 302.534 177.179 302.534 177.179 302.552 177.179 C 316.722 177.179 328.191 188.664 328.191 202.819" style="fill:#fbc508;fill-opacity:1;fill-rule:nonzero;stroke:none" id="path38"></path>
  <path d="M 337.165 222.851 C 332.601 222.971 327.628 222.151 324.243 221.039 C 325.509 219.826 328.174 215.536 329.149 212.544 C 331.815 214.955 334.977 218.816 337.165 222.851" style="fill:#fbc508;fill-opacity:1;fill-rule:nonzero;stroke:none" id="path40"></path>
  <path d="M 322.533 237.5 C 322.533 237.5 316.859 234.51 312.21 229.45 C 314.227 228.664 313.936 228.834 316.688 227.382 C 319.047 225.826 317.355 227.159 320.756 224.543 C 322.773 231.159 322.533 237.5 322.533 237.5" style="fill:#fbc508;fill-opacity:1;fill-rule:nonzero;stroke:none" id="path42"></path>
  <path d="M 307.44 230.715 C 306.517 234.971 304.466 239.671 302.518 242.782 C 302.518 242.8 302.5 242.8 302.5 242.816 C 300.227 239.022 298.518 234.748 297.611 230.732 C 299.953 231.004 301.458 231.126 302.518 231.142 C 304.278 231.194 304.825 230.988 305.918 230.97 C 306.841 230.851 307.44 230.715 307.44 230.715" style="fill:#fbc508;fill-opacity:1;fill-rule:nonzero;stroke:none" id="path44"></path>
  <path d="M 284.334 224.503 C 285.55 225.772 289.846 228.439 292.836 229.419 C 290.316 232.208 286.45 235.303 282.52 237.438 C 282.411 232.803 283.25 227.827 284.334 224.503" style="fill:#fbc508;fill-opacity:1;fill-rule:nonzero;stroke:none" id="path46"></path>
  <path d="M 275.931 212.474 C 276.715 214.498 276.551 214.195 278.001 216.96 C 279.562 219.308 278.224 217.616 280.834 221.015 C 274.219 223.044 267.881 222.795 267.881 222.795 C 267.881 222.795 270.87 217.124 275.931 212.474" style="fill:#fbc508;fill-opacity:1;fill-rule:nonzero;stroke:none" id="path48"></path>
  <path d="M 274.645 197.871 C 274.211 201.464 274.297 200.103 274.24 202.8 C 274.16 204.036 274.394 205.263 274.413 206.188 C 274.536 207.104 274.666 207.71 274.667 207.71 C 270.419 206.782 265.716 204.735 262.559 202.774 C 266.346 200.496 270.65 198.787 274.645 197.871" style="fill:#fbc508;fill-opacity:1;fill-rule:nonzero;stroke:none" id="path50"></path>
  <path d="M 280.878 184.602 C 280.878 184.602 280.427 185.032 279.917 185.807 C 278.423 187.879 276.885 190.283 275.96 193.104 C 273.171 190.583 270.077 186.718 267.942 182.787 C 272.511 182.679 277.433 183.478 280.878 184.602" style="fill:#fbc508;fill-opacity:1;fill-rule:nonzero;stroke:none" id="path52"></path>
  <path d="M 292.905 176.199 C 288.329 177.971 286.485 179.472 284.364 181.102 C 282.335 174.486 282.585 168.148 282.585 168.148 C 282.585 168.148 288.274 171.159 292.905 176.199" style="fill:#fbc508;fill-opacity:1;fill-rule:nonzero;stroke:none" id="path54"></path>
  <path d="M 307.509 174.904 C 305.116 174.615 303.577 174.512 302.518 174.494 C 300.808 174.46 300.262 174.666 299.184 174.683 C 298.278 174.803 297.663 174.939 297.663 174.939 C 298.552 170.854 300.501 166.256 302.518 162.956 C 302.552 162.906 302.568 162.871 302.603 162.82 C 304.671 166.256 306.517 170.563 307.509 174.904" style="fill:#fbc508;fill-opacity:1;fill-rule:nonzero;stroke:none" id="path56"></path>
  <path d="M 320.773 181.144 C 319.576 179.896 315.286 177.214 312.277 176.222 C 314.688 173.571 318.551 170.41 322.585 168.204 C 322.704 172.836 321.866 177.827 320.773 181.144" style="fill:#fbc508;fill-opacity:1;fill-rule:nonzero;stroke:none" id="path58"></path>
  <path d="M 337.234 182.852 C 337.234 182.852 334.225 188.528 329.183 193.178 C 328.397 191.143 328.567 191.452 327.114 188.683 C 325.542 186.34 326.892 188.032 324.277 184.631 C 330.892 182.596 337.234 182.852 337.234 182.852" style="fill:#fbc508;fill-opacity:1;fill-rule:nonzero;stroke:none" id="path60"></path>
  <path d="M 330.874 202.852 C 330.943 201.604 330.722 200.391 330.704 199.451 C 330.567 198.546 330.447 197.93 330.447 197.93 C 334.721 198.87 339.439 200.938 342.55 202.87 C 339.131 204.938 334.824 206.784 330.465 207.776 C 330.909 204.186 330.807 205.536 330.874 202.852" style="fill:#fbc508;fill-opacity:1;fill-rule:nonzero;stroke:none" id="path62"></path>
  <path d="M 307.509 174.904 C 305.116 174.615 303.577 174.512 302.518 174.494 L 302.518 162.956 C 302.552 162.906 302.568 162.871 302.603 162.82 C 304.671 166.256 306.517 170.563 307.509 174.904" style="fill:#f9dc06;fill-opacity:1;fill-rule:nonzero;stroke:none" id="path64"></path>
  <path d="M 305.918 230.97 C 306.841 230.851 307.44 230.715 307.44 230.715 C 306.517 234.971 304.466 239.671 302.518 242.782 L 302.518 231.142 C 304.278 231.194 304.825 230.988 305.918 230.97" style="fill:#f9dc06;fill-opacity:1;fill-rule:nonzero;stroke:none" id="path66"></path>
  <path d="M 302.552 228.459 C 302.534 228.459 302.534 228.459 302.518 228.459 L 302.518 177.179 C 302.534 177.179 302.534 177.179 302.552 177.179 C 316.722 177.179 328.191 188.664 328.191 202.819 C 328.191 216.988 316.722 228.459 302.552 228.459" style="fill:#f9dc06;fill-opacity:1;fill-rule:nonzero;stroke:none" id="path68"></path>
  <path d="M 320.756 224.543 C 322.773 231.159 322.533 237.5 322.533 237.5 C 322.533 237.5 316.859 234.51 312.21 229.45 C 314.227 228.664 313.936 228.834 316.688 227.382 C 319.047 225.826 317.355 227.159 320.756 224.543" style="fill:#f9dc06;fill-opacity:1;fill-rule:nonzero;stroke:none" id="path70"></path>
  <path d="M 320.773 181.144 C 319.576 179.896 315.286 177.214 312.277 176.222 C 314.688 173.571 318.551 170.41 322.585 168.204 C 322.704 172.836 321.866 177.827 320.773 181.144" style="fill:#f9dc06;fill-opacity:1;fill-rule:nonzero;stroke:none" id="path72"></path>
  <path d="M 337.165 222.851 C 332.601 222.971 327.628 222.151 324.243 221.039 C 325.509 219.826 328.174 215.536 329.149 212.544 C 331.815 214.955 334.977 218.816 337.165 222.851" style="fill:#f9dc06;fill-opacity:1;fill-rule:nonzero;stroke:none" id="path74"></path>
  <path d="M 327.114 188.683 C 325.542 186.34 326.892 188.032 324.277 184.631 C 330.892 182.596 337.234 182.852 337.234 182.852 C 337.234 182.852 334.225 188.528 329.183 193.178 C 328.397 191.143 328.567 191.452 327.114 188.683" style="fill:#f9dc06;fill-opacity:1;fill-rule:nonzero;stroke:none" id="path76"></path>
  <path d="M 330.874 202.852 C 330.943 201.604 330.722 200.391 330.704 199.451 C 330.567 198.546 330.447 197.93 330.447 197.93 C 334.721 198.87 339.439 200.938 342.55 202.87 C 339.131 204.938 334.824 206.784 330.465 207.776 C 330.909 204.186 330.807 205.536 330.874 202.852" style="fill:#f9dc06;fill-opacity:1;fill-rule:nonzero;stroke:none" id="path78"></path>
  <path d="M 325.251 202.819 L 322.585 202.819 C 322.585 191.772 313.598 182.786 302.552 182.786 L 302.523 180.119 L 302.552 180.119 C 315.068 180.119 325.251 190.302 325.251 202.819" style="fill:#ffffff;fill-opacity:1;fill-rule:nonzero;stroke:none" id="path80"></path>
  <path d="M 317.372 202.819 C 317.372 211.006 310.74 217.638 302.552 217.638 C 302.534 217.638 302.534 217.638 302.534 217.638 L 302.518 217.638 C 294.348 217.604 287.733 210.988 287.733 202.819 C 287.733 194.647 294.348 188.032 302.518 187.999 L 302.534 187.999 C 302.534 187.999 302.534 187.999 302.552 187.999 C 310.74 187.999 317.372 194.647 317.372 202.819" style="fill:#fbc508;fill-opacity:1;fill-rule:nonzero;stroke:none" id="path82"></path>
  <path d="M 302.518 187.999 L 302.518 217.638 C 294.348 217.604 287.733 210.988 287.733 202.819 C 287.733 194.647 294.348 188.032 302.518 187.999" style="fill:#f9dc06;fill-opacity:1;fill-rule:nonzero;stroke:none" id="path84"></path>
</svg>
