<svg version="1.1" id="svg2" width="85px" height="85px" viewBox="0 0 85 85" xmlns="http://www.w3.org/2000/svg">
  <defs id="defs6"></defs>
  <g id="g-1" transform="matrix(0.871067, 0, 0, -0.871067, -88.420174, 232.146622)" style="">
    <g id="g-2" transform="scale(0.1)" style="pointer-events: none;">
      <path d="M 1977.619 2146.658 C 1977.619 2114.838 1964.756 2085.968 1943.85 2065.148 C 1922.936 2044.348 1894.178 2031.398 1862.346 2031.398 L 1380.182 2031.398 C 1324.9 2031.398 1280.017 2076.278 1280.017 2131.558 C 1280.017 2186.848 1324.9 2231.628 1380.182 2231.628 C 1397.932 2231.628 1414.557 2227.038 1429.045 2218.878 C 1426.701 2225.408 1425.264 2232.438 1425.264 2239.778 C 1425.264 2273.548 1452.608 2300.778 1486.361 2300.778 C 1506.256 2300.778 1524.006 2291.188 1535.127 2276.308 C 1540.428 2352.708 1601.322 2413.798 1677.725 2418.898 C 1681.194 2419.208 1684.658 2419.308 1688.229 2419.308 C 1773.096 2419.308 1841.947 2350.458 1841.947 2265.588 C 1841.947 2263.648 1841.74 2261.818 1841.643 2259.878 C 1848.365 2261.108 1855.303 2261.818 1862.346 2261.818 C 1925.998 2261.818 1977.619 2210.208 1977.619 2146.658" style="fill-opacity: 1; fill-rule: nonzero; stroke: none; fill: rgb(52, 123, 165);" id="path-1"></path>
      <path d="M 1977.619 2146.658 C 1977.619 2114.838 1964.756 2085.968 1943.85 2065.148 C 1922.936 2044.348 1894.178 2031.398 1862.346 2031.398 L 1677.725 2031.398 L 1677.725 2418.898 C 1681.194 2419.208 1684.658 2419.308 1688.229 2419.308 C 1773.096 2419.308 1841.947 2350.458 1841.947 2265.588 C 1841.947 2263.648 1841.74 2261.818 1841.643 2259.878 C 1848.365 2261.108 1855.303 2261.818 1862.346 2261.818 C 1925.998 2261.818 1977.619 2210.208 1977.619 2146.658" style="fill-opacity: 1; fill-rule: nonzero; stroke: none; fill: rgb(62, 125, 197);" id="path-2"></path>
      <path d="M 1804.678 2265.208 L 1789.678 2265.208 C 1789.678 2321.348 1744.006 2367.018 1687.861 2367.018 C 1684.674 2367.018 1681.514 2366.858 1678.404 2366.578 L 1677.049 2381.518 C 1680.608 2381.838 1684.217 2382.018 1687.861 2382.018 C 1752.276 2382.018 1804.678 2329.618 1804.678 2265.208" style="fill:#ffffff;fill-opacity:1;fill-rule:nonzero;stroke:none" id="path-3"></path>
    </g>
  </g>
  <g id="g8" transform="matrix(0.871067, 0, 0, -0.871067, -109.509834, 239.391815)" style="">
    <g id="g10" transform="scale(0.1)">
      <path d="M 1977.619 2146.658 C 1977.619 2114.838 1964.756 2085.968 1943.85 2065.148 C 1922.936 2044.348 1894.178 2031.398 1862.346 2031.398 L 1380.182 2031.398 C 1324.9 2031.398 1280.017 2076.278 1280.017 2131.558 C 1280.017 2186.848 1324.9 2231.628 1380.182 2231.628 C 1397.932 2231.628 1414.557 2227.038 1429.045 2218.878 C 1426.701 2225.408 1425.264 2232.438 1425.264 2239.778 C 1425.264 2273.548 1452.608 2300.778 1486.361 2300.778 C 1506.256 2300.778 1524.006 2291.188 1535.127 2276.308 C 1540.428 2352.708 1601.322 2413.798 1677.725 2418.898 C 1681.194 2419.208 1684.658 2419.308 1688.229 2419.308 C 1773.096 2419.308 1841.947 2350.458 1841.947 2265.588 C 1841.947 2263.648 1841.74 2261.818 1841.643 2259.878 C 1848.365 2261.108 1855.303 2261.818 1862.346 2261.818 C 1925.998 2261.818 1977.619 2210.208 1977.619 2146.658" style="fill:#42aecb;fill-opacity:1;fill-rule:nonzero;stroke:none" id="path342"></path>
      <path d="M 1977.619 2146.658 C 1977.619 2114.838 1964.756 2085.968 1943.85 2065.148 C 1922.936 2044.348 1894.178 2031.398 1862.346 2031.398 L 1677.725 2031.398 L 1677.725 2418.898 C 1681.194 2419.208 1684.658 2419.308 1688.229 2419.308 C 1773.096 2419.308 1841.947 2350.458 1841.947 2265.588 C 1841.947 2263.648 1841.74 2261.818 1841.643 2259.878 C 1848.365 2261.108 1855.303 2261.818 1862.346 2261.818 C 1925.998 2261.818 1977.619 2210.208 1977.619 2146.658" style="fill:#47b9d4;fill-opacity:1;fill-rule:nonzero;stroke:none" id="path344"></path>
      <path d="M 1804.678 2265.208 L 1789.678 2265.208 C 1789.678 2321.348 1744.006 2367.018 1687.861 2367.018 C 1684.674 2367.018 1681.514 2366.858 1678.404 2366.578 L 1677.049 2381.518 C 1680.608 2381.838 1684.217 2382.018 1687.861 2382.018 C 1752.276 2382.018 1804.678 2329.618 1804.678 2265.208" style="fill:#ffffff;fill-opacity:1;fill-rule:nonzero;stroke:none" id="path346"></path>
    </g>
  </g>
  <g id="g-3" transform="matrix(0.365655, 0, 0, -0.365655, -1.846745, 78.607254)" style="">
    <g id="g-4" transform="scale(0.1)">
      <path d="M 557.246,312.672 590.195,409.52 514.16,290.199 c 25.985,0 30.039,0 55.867,0 l -32.949,-96.84 c 72.758,114.231 59.406,93.289 76.035,119.313 -26.343,0 -29.468,0 -55.867,0" style="fill:#f9dc06;fill-opacity:1;fill-rule:nonzero;stroke:none" id="path412"></path>
      <path d="m 395.066,225.02 58.684,172.5 -135.422,-212.5 c 46.289,0 53.496,0 99.504,0 L 359.148,12.5195 C 488.738,215.969 464.961,178.672 494.57,225.02 c -46.925,0 -52.492,0 -99.504,0" style="fill:#f9dc06;fill-opacity:1;fill-rule:nonzero;stroke:none" id="path414"></path>
      <path d="M 453.75,397.52 360.012,205.02 H 453.75 L 359.148,12.5195 494.57,225.02 h -99.504 l 58.684,172.5" style="fill:#f6f010;fill-opacity:1;fill-rule:nonzero;stroke:none" id="path416"></path>
    </g>
  </g>
  <g id="g-5" transform="matrix(0.296054, 0, 0, -0.296054, 36.03973, 74.928719)" style="">
    <g id="g-6" transform="scale(0.1)">
      <path d="M 557.246,312.672 590.195,409.52 514.16,290.199 c 25.985,0 30.039,0 55.867,0 l -32.949,-96.84 c 72.758,114.231 59.406,93.289 76.035,119.313 -26.343,0 -29.468,0 -55.867,0" style="fill:#f9dc06;fill-opacity:1;fill-rule:nonzero;stroke:none" id="path-4"></path>
      <path d="m 395.066,225.02 58.684,172.5 -135.422,-212.5 c 46.289,0 53.496,0 99.504,0 L 359.148,12.5195 C 488.738,215.969 464.961,178.672 494.57,225.02 c -46.925,0 -52.492,0 -99.504,0" style="fill:#f9dc06;fill-opacity:1;fill-rule:nonzero;stroke:none" id="path-5"></path>
      <path d="M 453.75,397.52 360.012,205.02 H 453.75 L 359.148,12.5195 494.57,225.02 h -99.504 l 58.684,172.5" style="fill:#f6f010;fill-opacity:1;fill-rule:nonzero;stroke:none" id="path-6"></path>
    </g>
  </g>
</svg>