<svg width="100" height="100" viewBox="0 0 64 64" fill="none" xmlns="http://www.w3.org/2000/svg">
<path d="M77 27.7266C77 22.3421 72.6122 17.9766 67.2222 17.9766C61.8224 17.9766 57.4444 22.3373 57.4444 27.7266H62.3333C62.3333 25.0331 64.504 22.8516 67.2222 22.8516C69.9233 22.8516 72.1111 25.0161 72.1111 27.7266C72.1111 30.42 69.9356 32.6016 67.2124 32.6016H11V37.4766H67.2271C72.6244 37.4766 77 33.1013 77 27.7266ZM55 17.9766C55 12.5921 50.6122 8.22656 45.2222 8.22656C39.8224 8.22656 35.4444 12.5872 35.4444 17.9693V17.9766H40.3333C40.3333 15.2831 42.504 13.1016 45.2222 13.1016C47.9233 13.1016 50.1111 15.2661 50.1111 17.9766C50.1111 20.67 47.9184 22.8516 45.2076 22.8516H15.8889V27.7266H45.232C50.6269 27.7266 55 23.3513 55 17.9766V17.9766ZM67.2222 49.6641C67.2222 53.703 63.9296 56.9766 59.8889 56.9766C55.8384 56.9766 52.5556 53.7054 52.5556 49.686V49.6641H57.4444C57.4444 51.0096 58.5298 52.1016 59.8889 52.1016C61.2382 52.1016 62.3333 51.0193 62.3333 49.6641C62.3333 48.3186 61.2358 47.2266 59.8718 47.2266H25.6667V42.3516H59.8889C63.9393 42.3516 67.2222 45.6349 67.2222 49.6641Z" fill="#F5F5F5" style="transform: translateX(-24%)"/>
</svg>

